<?xml version="1.0" encoding="UTF-8"?>
<svg version="1.1" xmlns="http://www.w3.org/2000/svg" width="512" height="512">
<path d="M0 0 C4.12279192 0.00914431 8.24551904 -0.00496515 12.36829758 -0.01591969 C20.42114874 -0.03361055 28.47384991 -0.02990731 36.5267067 -0.01826912 C43.07743169 -0.00919766 49.62811496 -0.00802676 56.17884445 -0.01236439 C57.11483144 -0.01297732 58.05081843 -0.01359025 59.01516867 -0.01422176 C60.9172179 -0.01550079 62.81926713 -0.01679765 64.72131634 -0.01811212 C82.51389757 -0.02949029 100.30639608 -0.01644775 118.09896374 0.00508934 C133.3317681 0.0229578 148.56445049 0.01985291 163.79725266 0.0014143 C181.53063333 -0.02004141 199.26394168 -0.02839191 216.99733353 -0.01613665 C218.89198429 -0.01486259 220.78663507 -0.0136051 222.68128586 -0.01236439 C223.61324075 -0.01174729 224.54519565 -0.01113018 225.5053916 -0.01049438 C232.04044057 -0.00705555 238.57544327 -0.01283799 245.11048508 -0.0222826 C253.08571738 -0.03355638 261.06079241 -0.03035036 269.03600693 -0.00915962 C273.09708423 0.00127898 277.15790031 0.00559719 281.21897507 -0.00775623 C315.20309151 -0.10993334 342.84879771 5.5528535 368.02772141 30.05024242 C391.7657425 55.03570204 396.06230555 83.83956048 395.95296383 117.09283352 C395.94381952 121.21562544 395.95792898 125.33835256 395.96888351 129.4611311 C395.98657438 137.51398226 395.98287114 145.56668343 395.97123295 153.61954021 C395.96216149 160.17026521 395.96099059 166.72094848 395.96532822 173.27167797 C395.96594115 174.20766496 395.96655408 175.14365195 395.96718559 176.10800219 C395.96846462 178.01005142 395.96976148 179.91210065 395.97107595 181.81414986 C395.98245411 199.60673109 395.96941158 217.39922959 395.94787449 235.19179726 C395.93000603 250.42460162 395.93311092 265.65728401 395.95154953 280.89008617 C395.97300524 298.62346685 395.98135574 316.3567752 395.96910048 334.09016705 C395.96782642 335.98481781 395.96656893 337.87946859 395.96532822 339.77411938 C395.96471111 340.70607427 395.96409401 341.63802917 395.96345821 342.59822512 C395.96001938 349.13327409 395.96580182 355.66827679 395.97524643 362.2033186 C395.98652021 370.17855089 395.98331419 378.15362593 395.96212345 386.12884045 C395.95168485 390.18991775 395.94736664 394.25073383 395.96072006 398.31180859 C396.06289717 432.29592503 390.40011032 459.94163123 365.90272141 485.12055492 C340.91726179 508.85857602 312.11340335 513.15513907 278.86013031 513.04579735 C274.73733839 513.03665304 270.61461127 513.0507625 266.49183273 513.06171703 C258.43898157 513.0794079 250.3862804 513.07570466 242.33342361 513.06406647 C235.78269862 513.05499501 229.23201535 513.05382411 222.68128586 513.05816174 C221.74529887 513.05877467 220.80931188 513.0593876 219.84496164 513.06001911 C217.94291241 513.06129814 216.04086318 513.062595 214.13881397 513.06390947 C196.34623274 513.07528763 178.55373423 513.0622451 160.76116657 513.04070801 C145.52836221 513.02283955 130.29567982 513.02594444 115.06287766 513.04438305 C97.32949698 513.06583876 79.59618863 513.07418926 61.86279678 513.06193399 C59.96814602 513.06065994 58.07349524 513.05940245 56.17884445 513.05816174 C55.24688956 513.05754463 54.31493466 513.05692753 53.35473871 513.05629173 C46.81968974 513.0528529 40.28468704 513.05863534 33.74964523 513.06807995 C25.77441293 513.07935373 17.7993379 513.07614771 9.82412338 513.05495697 C5.76304608 513.04451837 1.70223 513.04020016 -2.35884476 513.05355358 C-36.3429612 513.15573069 -63.9886674 507.49294384 -89.16759109 482.99555492 C-112.90561219 458.01009531 -117.20217524 429.20623687 -117.09283352 395.95296383 C-117.08368921 391.83017191 -117.09779867 387.70744478 -117.1087532 383.58466625 C-117.12644407 375.53181509 -117.12274083 367.47911392 -117.11110264 359.42625713 C-117.10203118 352.87553214 -117.10086028 346.32484887 -117.10519791 339.77411938 C-117.10581084 338.83813239 -117.10642377 337.9021454 -117.10705528 336.93779516 C-117.10833431 335.03574593 -117.10963117 333.1336967 -117.11094564 331.23164749 C-117.1223238 313.43906626 -117.10928127 295.64656775 -117.08774418 277.85400009 C-117.06987572 262.62119573 -117.07298061 247.38851334 -117.09141922 232.15571117 C-117.11287493 214.4223305 -117.12122543 196.68902215 -117.10897017 178.9556303 C-117.10769611 177.06097954 -117.10643862 175.16632876 -117.10519791 173.27167797 C-117.10427225 171.87374563 -117.10427225 171.87374563 -117.1033279 170.44757223 C-117.09988907 163.91252326 -117.10567151 157.37752056 -117.11511612 150.84247875 C-117.1263899 142.86724645 -117.12318388 134.89217142 -117.10199314 126.9169569 C-117.09155454 122.8558796 -117.08723633 118.79506352 -117.10058975 114.73398876 C-117.20276686 80.74987232 -111.53998001 53.10416612 -87.04259109 27.92524242 C-62.05713148 4.18722132 -33.25327304 -0.10934172 0 0 Z M-38.49962234 172.19086742 C-45.87147601 180.49463466 -44.7191503 192.02458468 -44.71519852 202.48139477 C-44.71855713 203.76372494 -44.72191574 205.04605511 -44.72537613 206.36724377 C-44.73416234 209.86526862 -44.73655194 213.36326898 -44.73719192 216.86130381 C-44.73790537 219.05178452 -44.74004524 221.24225912 -44.74268913 223.4327383 C-44.75192409 231.08877231 -44.75602626 238.74478897 -44.75523758 246.40082836 C-44.75463698 253.51492629 -44.76519006 260.62894835 -44.78098124 267.74302709 C-44.79409372 273.87068611 -44.79941994 279.99832044 -44.79878217 286.12599337 C-44.79852831 289.77704361 -44.8013172 293.42802632 -44.81196022 297.07906246 C-44.82351804 301.15463157 -44.81887176 305.23003244 -44.81285477 309.30561352 C-44.81847427 310.50074062 -44.82409378 311.69586773 -44.82988358 312.92721081 C-44.7888757 323.8894076 -43.91843244 332.99864146 -36.56993484 341.52289867 C-30.85091569 347.14373724 -24.05308292 350.32351147 -15.99180984 350.61664867 C-8.09380734 350.13210864 -1.25495518 347.05426981 4.43006516 341.52289867 C9.80553793 334.3816456 11.69834663 327.33175092 11.84412766 318.40180492 C11.8634938 317.65704403 11.88285995 316.91228313 11.90281296 316.14495373 C11.96206671 313.79188118 12.0087743 311.43875825 12.05506516 309.08539867 C12.09329501 307.47925885 12.13234957 305.87313843 12.17225266 304.2670393 C12.26772266 300.35248542 12.35195059 296.43783576 12.43006516 292.52289867 C12.90464157 293.4423225 12.90464157 293.4423225 13.38880539 294.38032055 C17.03985502 301.44337477 20.72231349 308.48944797 24.43006516 315.52289867 C24.87189133 316.36336742 25.3137175 317.20383617 25.76893234 318.06977367 C33.47406862 332.8035695 33.47406862 332.8035695 46.97694016 341.86274242 C54.17911112 343.80090627 60.57094935 343.03114846 67.26209641 339.88617992 C72.64998929 336.49811755 76.00331173 333.23581248 79.05506516 327.64789867 C79.37426926 327.06999584 79.69347336 326.49209301 80.02235031 325.89667797 C83.93186633 318.74865508 87.6589568 311.49632871 91.39344406 304.25580883 C91.8876384 303.29851879 92.38183273 302.34122875 92.89100266 301.35492992 C93.55301682 300.06679394 93.55301682 300.06679394 94.228405 298.752635 C95.43006516 296.52289867 95.43006516 296.52289867 97.43006516 293.52289867 C97.45193893 294.89840893 97.45193893 294.89840893 97.47425461 296.30170727 C97.53582387 299.75002092 97.61006601 303.19760321 97.69251633 306.64545727 C97.72548213 308.1290791 97.75359933 309.61281783 97.7765007 311.09662914 C97.98046127 323.96784317 98.69213627 333.78257899 108.03944016 343.38617992 C114.02753779 348.7382868 120.38047331 350.83904579 128.43006516 350.52289867 C137.55093457 348.88168028 143.58735711 344.6988634 149.81678391 338.01117992 C154.93154299 330.12231422 154.86156977 321.74935672 154.81824875 312.60883617 C154.82232121 311.22311014 154.82766686 309.83738736 154.83417892 308.45167065 C154.8477783 304.71196712 154.84258468 300.97251373 154.83304167 297.23280621 C154.82540657 293.30524591 154.83250132 289.37770597 154.83720016 285.45014477 C154.84264656 278.85651872 154.83549551 272.26299373 154.82117844 265.66938305 C154.80485403 258.06384144 154.81014333 250.45854117 154.82665765 242.85300541 C154.84030443 236.30409662 154.84217663 229.75526017 154.83434165 223.20634174 C154.82968262 219.30325526 154.82899121 215.40028193 154.83895111 211.49720287 C154.84766517 207.82643204 154.84151868 204.15597009 154.82426834 200.48523235 C154.8184582 198.50822903 154.82728101 196.53119936 154.83665085 194.55420971 C154.77085605 185.26633381 153.87309145 177.1005628 147.28944016 170.09321117 C141.42040185 165.13658638 134.16140666 162.08677172 126.43006516 162.52289867 C115.92373929 164.24390369 108.67014921 170.18508423 102.43006516 178.52289867 C100.10983689 182.23237265 98.01808603 186.05398097 95.93006516 189.89789867 C94.69198299 192.14280015 93.45369597 194.38758865 92.21522141 196.63227367 C91.5876091 197.77631664 90.9599968 198.92035961 90.31336594 200.09907055 C87.36149888 205.46554495 84.36439154 210.806442 81.36756516 216.14789867 C80.79393234 217.17197826 80.22029953 218.19605785 79.62928391 219.25117016 C75.57238637 226.49293784 71.50712603 233.72996302 67.43006516 240.96039867 C66.91435959 241.87708324 66.39865402 242.79376781 65.86732101 243.73823071 C62.48554856 249.72665993 58.99660434 255.64269367 55.43006516 261.52289867 C52.4895493 258.02548217 50.17724269 254.51123693 47.99647141 250.49946117 C47.68244873 249.92555645 47.36842606 249.35165173 47.04488754 248.76035595 C46.37268824 247.53084311 45.70261301 246.30016699 45.03449631 245.0684309 C43.25306748 241.78482481 41.45555156 238.51002701 39.66053391 235.23383617 C39.11964127 234.24504467 39.11964127 234.24504467 38.5678215 233.23627758 C34.85673138 226.45849911 31.06067612 219.72994486 27.23402023 213.01679516 C24.38002695 208.00276053 21.57559334 202.96752095 18.82850266 197.89399242 C18.21958176 196.77927563 17.61066086 195.66455883 16.98328781 194.51606274 C15.82347308 192.38989276 14.67383852 190.25812093 13.53699875 188.11957836 C7.45830682 177.03049305 -0.09101204 167.54082035 -12.25743484 163.21039867 C-22.92511976 160.99635086 -30.87966657 164.79783823 -38.49962234 172.19086742 Z M172.84022141 171.08930492 C165.31665044 179.31188737 164.98377233 186.76245627 165.01014328 197.56122875 C165.00279558 198.98444818 164.99420731 200.40766167 164.984478 201.83086681 C164.96232456 205.68229369 164.95932827 209.53350623 164.96122551 213.38498807 C164.96134552 216.60788661 164.95276877 219.83074025 164.94444799 223.05362624 C164.92523535 230.6623109 164.92232196 238.27088586 164.92908859 245.87958813 C164.93572484 253.71011752 164.91287716 261.54017532 164.87577486 269.3706091 C164.8450105 276.10973174 164.83372519 282.84870322 164.83761168 289.58789462 C164.83967259 293.60572444 164.83430274 297.62318733 164.80971909 301.6409502 C164.78734304 305.42264112 164.78941851 309.20356938 164.80964661 312.98526478 C164.81464461 315.02057232 164.79511578 317.05589479 164.77463913 319.09110546 C164.85532075 327.95981337 166.24355084 334.99599698 172.40593338 341.6594162 C178.05248668 347.01414917 184.26266692 349.93968193 192.03162766 350.58930492 C199.64482285 350.37851613 206.57007927 347.24062464 212.01990891 341.99164867 C218.80830417 334.68872956 219.87832193 327.31434249 219.72303391 317.67914867 C219.72001266 316.78292797 219.71699142 315.88670727 219.71387863 314.96332836 C219.69830933 311.64973285 219.65642635 308.33630288 219.61756516 305.02289867 C219.55569016 297.59789867 219.49381516 290.17289867 219.43006516 282.52289867 C235.60006516 282.52289867 251.77006516 282.52289867 268.43006516 282.52289867 C268.18006516 304.96039867 268.18006516 304.96039867 268.06971359 311.98945141 C268.05801763 313.8534557 268.04782796 315.71747031 268.03944016 317.58149242 C268.00874435 319.00226086 268.00874435 319.00226086 267.97742844 320.45173168 C267.97289107 329.20772276 270.60810996 336.46839934 276.60975266 342.95258617 C282.81102399 348.30218076 290.27519899 350.90515803 298.43006516 350.52289867 C307.00846002 349.4774068 312.8635872 344.95436864 318.43006516 338.52289867 C324.02680342 329.66262701 323.57917575 319.90020697 323.57532883 309.76972485 C323.57868744 308.49729427 323.58204605 307.2248637 323.58550644 305.91387463 C323.59430334 302.43851708 323.59668274 298.96318418 323.59732223 295.48781657 C323.5980352 293.31191457 323.6001742 291.13601875 323.60281944 288.96011829 C323.61205875 281.35595969 323.61615612 273.75181856 323.61536789 266.14765453 C323.61476754 259.08072432 323.62531454 252.01387055 323.64111155 244.94695967 C323.65422504 238.86178328 323.65955019 232.77663176 323.65891248 226.69144136 C323.6586586 223.06496825 323.66144848 219.43856314 323.67209053 215.81210423 C323.68365019 211.7627691 323.67900146 207.71360328 323.67298508 203.6642561 C323.67860458 202.47690868 323.68422409 201.28956127 323.69001389 200.06623363 C323.64768395 188.82095458 322.71851322 179.50719516 315.05506516 170.83539867 C308.48445496 165.04700398 302.33706164 162.11739259 293.55506516 162.58539867 C284.93785065 163.75024487 278.54506039 167.66557001 272.90272141 174.16742992 C268.45678937 181.2785626 268.01098965 187.62475204 268.13709641 195.80414867 C268.14011765 196.73968578 268.14313889 197.67522289 268.14625168 198.63910961 C268.16182956 202.10048647 268.20371268 205.56170482 268.24256516 209.02289867 C268.30444016 216.77789867 268.36631516 224.53289867 268.43006516 232.52289867 C252.26006516 232.52289867 236.09006516 232.52289867 219.43006516 232.52289867 C219.68006516 209.14789867 219.68006516 209.14789867 219.79041672 201.83002758 C219.80211415 199.88651445 219.81230347 197.94299141 219.82069016 195.99946117 C219.85138596 194.5215913 219.85138596 194.5215913 219.88270187 193.01386547 C219.8869565 184.44716941 218.05817519 177.09185257 212.18006516 170.64789867 C200.54033526 160.16967049 184.29642478 159.80198906 172.84022141 171.08930492 Z " fill="#000000" transform="translate(116.5699348449707,-0.5228986740112305)"/>
<path d="M0 0 C6.3853973 5.50882806 10.08627489 11.5425742 13.95874023 18.97216797 C14.6004943 20.16951144 15.24425305 21.36578235 15.88989258 22.56103516 C17.21317403 25.01380642 18.52845411 27.47060584 19.83813477 29.93066406 C22.7746347 35.42807579 25.83846008 40.85408811 28.89624023 46.28466797 C30.0538881 48.34971844 31.21144087 50.41482223 32.36889648 52.47998047 C37.26213074 61.19426526 42.18175534 69.893593 47.10522461 78.59082031 C50.10039571 83.88328414 53.09179764 89.17787856 56.08374023 94.47216797 C57.18398527 96.41879124 58.2842442 98.36540667 59.38452148 100.31201172 C60.1800944 101.7195638 60.97566732 103.12711589 61.77124023 104.53466797 C64.65423127 101.9938927 66.2450573 99.13717854 68.07202148 95.77685547 C68.3847702 95.20549866 68.69751892 94.63414185 69.01974487 94.04547119 C69.69359474 92.81314293 70.36510662 91.57953393 71.03451538 90.3447876 C72.46026026 87.71523979 73.89746551 85.0920178 75.33399963 82.46835327 C76.07110168 81.12184886 76.80761866 79.77502402 77.54356384 78.42788696 C80.97488316 72.1491244 84.45733784 65.89961402 87.95874023 59.65966797 C88.52802246 58.64485352 89.09730469 57.63003906 89.68383789 56.58447266 C91.37808843 53.5669965 93.07427583 50.55061863 94.77124023 47.53466797 C95.3294043 46.54208984 95.88756836 45.54951172 96.46264648 44.52685547 C99.70502288 38.76430252 102.96260611 33.01068842 106.23071289 27.26269531 C107.76487894 24.54593281 109.2756427 21.81718227 110.78295898 19.08544922 C111.73708172 17.38085175 112.69149451 15.67641658 113.64624023 13.97216797 C114.06220459 13.20469238 114.47816895 12.4372168 114.90673828 11.64648438 C118.9841868 4.43558334 124.2653606 -0.82984202 132.37670898 -3.10986328 C136.84716298 -3.77350327 140.64437381 -3.3282009 144.77124023 -1.46533203 C148.48953501 1.6793601 151.22530775 4.89687053 152.77124023 9.53466797 C152.8705429 11.43197107 152.91055912 13.33258386 152.91841125 15.23246765 C152.92914421 17.01352654 152.92914421 17.01352654 152.94009399 18.83056641 C152.9427829 20.13501709 152.9454718 21.43946777 152.94824219 22.78344727 C152.95450817 24.16990835 152.96115509 25.55636775 152.96815491 26.94282532 C152.98918492 31.49816725 152.99955754 36.05350947 153.00952148 40.60888672 C153.01356969 42.17847015 153.01768663 43.74805341 153.02187157 45.31763649 C153.04092234 52.693431 153.05515259 60.06921553 153.06348354 67.44502991 C153.07325047 75.95124358 153.09955608 84.45719665 153.13998443 92.96331853 C153.17017863 99.54264502 153.18495561 106.12189696 153.18826455 112.70129138 C153.19061164 116.62854599 153.19952699 120.55552215 153.22472572 124.48270226 C153.24806904 128.18049734 153.25221489 131.87783192 153.24196434 135.57568169 C153.24123578 137.57087024 153.26028376 139.56603573 153.2800293 141.56112671 C153.23565197 149.23962777 152.72494607 155.07847049 147.43005848 161.04630566 C143.36349262 164.8144929 139.05941469 166.48867951 133.53686523 166.56591797 C127.02519394 166.12889305 123.04548111 163.93525556 118.52124023 159.15966797 C115.20132764 154.17979908 114.51825854 149.51730901 114.45239258 143.61132812 C114.43732414 142.61514969 114.43732414 142.61514969 114.42195129 141.59884644 C114.39128762 139.42381585 114.37413168 137.24890738 114.35717773 135.07373047 C114.33845249 133.55771852 114.31887807 132.04171685 114.29849243 130.52572632 C114.24730832 126.55070063 114.20760954 122.5756412 114.17034912 118.60046387 C114.13022308 114.53808337 114.07917011 110.47584156 114.02905273 106.41357422 C113.93245607 98.45403378 113.8479997 90.49442432 113.77124023 82.53466797 C113.40950714 83.233078 113.04777405 83.93148804 112.67507935 84.65106201 C111.00259646 87.87850861 109.32833355 91.10502873 107.65405273 94.33154297 C107.08533447 95.42966309 106.51661621 96.5277832 105.93066406 97.65917969 C101.30921695 106.56047441 96.53336272 115.36855273 91.68530273 124.14794922 C89.66457575 127.83864823 87.73459754 131.56206538 85.85717773 135.32763672 C85.38038574 136.27413086 84.90359375 137.220625 84.41235352 138.19580078 C83.51804799 139.98064501 82.63758886 141.77253116 81.7746582 143.57275391 C78.55760142 149.96118146 74.29420191 155.27318713 67.77124023 158.53466797 C61.81422078 159.09179928 56.81915624 159.05646983 51.77124023 155.53466797 C48.10301595 151.4837367 45.37110867 147.36156258 42.87280273 142.49560547 C42.52068222 141.82467361 42.16856171 141.15374176 41.80577087 140.46247864 C40.6627666 138.28153489 39.52962825 136.09562187 38.39624023 133.90966797 C37.60273544 132.39270421 36.80837325 130.87618866 36.01318359 129.36010742 C34.79703968 127.04117295 33.58142268 124.72197962 32.36845398 122.40138245 C28.72096586 115.42354122 25.0247756 108.47246831 21.30438232 101.53326416 C20.35313793 99.75836163 19.40420574 97.98222051 18.45532227 96.20605469 C17.88023926 95.13242676 17.30515625 94.05879883 16.71264648 92.95263672 C16.21450439 92.02217529 15.7163623 91.09171387 15.203125 90.13305664 C13.7855827 87.56069472 12.28847969 85.04915355 10.77124023 82.53466797 C10.76537399 83.38356094 10.75950775 84.23245392 10.75346375 85.10707092 C10.69544779 93.12537256 10.62332021 101.14339827 10.53552532 109.16143131 C10.49088676 113.28313791 10.45161656 117.40474716 10.42480469 121.52661133 C10.39870632 125.50793366 10.35825846 129.48888004 10.30805397 133.4699688 C10.29142924 134.98527775 10.27988767 136.50065168 10.27362633 138.01603889 C10.26393682 140.14642438 10.23582267 142.27585757 10.20361328 144.40600586 C10.19251022 145.61623917 10.18140717 146.82647247 10.16996765 148.07337952 C9.54540193 153.49513388 7.80504713 158.30018188 3.45874023 161.84716797 C-1.03417027 165.35520247 -4.88055452 166.78576826 -10.60375977 166.47216797 C-16.95571845 165.54026172 -21.43032599 162.89108499 -25.3104248 157.80714417 C-28.45003885 152.13608437 -27.78649925 145.73282896 -27.74633789 139.43286133 C-27.75176396 138.00315134 -27.75888933 136.57344694 -27.76757812 135.14375305 C-27.78575551 131.275979 -27.77876778 127.4086335 -27.76606178 123.54085231 C-27.75590696 119.48641638 -27.76533415 115.43201617 -27.77160645 111.37757874 C-27.77887482 104.57106971 -27.76931564 97.76473455 -27.75024414 90.95825195 C-27.7284681 83.09588034 -27.73553515 75.23392354 -27.75754976 67.37156194 C-27.7757165 60.61211126 -27.77825615 53.85278526 -27.76779509 47.09331805 C-27.76156824 43.06004161 -27.76070229 39.02696002 -27.77394104 34.99369621 C-27.78551792 31.20222413 -27.77744094 27.41128573 -27.75436401 23.61987114 C-27.74908701 22.2307575 -27.75057349 20.84159873 -27.75941467 19.4525032 C-27.83482826 6.39769278 -27.83482826 6.39769278 -23.22875977 1.53466797 C-16.07801243 -4.09464376 -7.85739617 -5.16596471 0 0 Z " fill="#000000" transform="translate(109.228759765625,174.46533203125)"/>
<path d="M0 0 C4.30375152 3.81468885 7.31504236 7.52751684 8.18618774 13.35571289 C8.3270849 16.80999958 8.31258875 20.23120674 8.23828125 23.6875 C8.23324585 24.79996094 8.22821045 25.91242188 8.22302246 27.05859375 C8.19700641 31.18516074 8.12719999 35.31135824 8.0625 39.4375 C7.959375 48.6775 7.85625 57.9175 7.75 67.4375 C29.86 67.4375 51.97 67.4375 74.75 67.4375 C74.55249383 49.03869057 74.55249383 49.03869057 74.29956055 30.640625 C74.28494857 28.3229284 74.27220958 26.00521892 74.26171875 23.6875 C74.23613892 22.49769531 74.21055908 21.30789062 74.1842041 20.08203125 C74.18049018 12.97506687 74.82609385 7.81442384 79.75 2.4375 C84.48208135 -1.42771884 89.66452538 -2.80382055 95.75 -2.5625 C101.32403284 -1.59619869 104.81659338 0.9703786 108.5234375 5.1328125 C112.48642915 12.57919808 112.03670477 21.24325039 112.00878906 29.43359375 C112.01404602 31.34508713 112.01404602 31.34508713 112.01940918 33.29519653 C112.02846823 36.76627087 112.02501593 40.23722531 112.01865101 43.70830154 C112.01355721 47.35558627 112.0182918 51.00286132 112.02142334 54.65014648 C112.02505319 60.7729678 112.02028972 66.89574073 112.01074219 73.01855469 C111.99985952 80.07873761 112.00338579 87.13880498 112.014395 94.1989851 C112.02349592 100.28079556 112.02473948 106.36257141 112.01951766 112.44438648 C112.01641334 116.06799524 112.01594603 119.69154984 112.02259064 123.31515503 C112.02948614 127.35730742 112.0199057 131.39926326 112.00878906 135.44140625 C112.01283752 136.62920685 112.01688599 137.81700745 112.02105713 139.040802 C111.97669106 147.77323226 111.91111451 156.37051888 105.58203125 162.9921875 C101.20391855 166.44613569 96.15818613 167.79320593 90.625 167.375 C84.76184257 165.95649417 80.61660832 164.12109873 77.07348633 159.0859375 C73.74000895 153.51606461 74.12061933 147.94980941 74.26171875 141.625 C74.26675415 140.55185547 74.27178955 139.47871094 74.27697754 138.37304688 C74.30298362 134.39425644 74.37278998 130.41584919 74.4375 126.4375 C74.540625 117.5275 74.64375 108.6175 74.75 99.4375 C52.64 99.4375 30.53 99.4375 7.75 99.4375 C7.90805171 117.22302399 7.90805171 117.22302399 8.11035156 135.00805664 C8.12203966 137.24624874 8.1322312 139.48444937 8.140625 141.72265625 C8.16108887 142.87439331 8.18155273 144.02613037 8.20263672 145.21276855 C8.20552411 151.87759938 7.7671251 156.03769562 3.75 161.4375 C-0.23912012 165.42662012 -4.5185878 167.37126191 -10.23046875 167.47265625 C-16.58735616 166.96853172 -21.24884034 164.59664595 -25.625 159.875 C-28.17099401 156.05600898 -28.38006406 153.14990743 -28.40390015 148.66377258 C-28.41250061 147.45957169 -28.42110107 146.25537079 -28.42996216 145.01467896 C-28.43439727 143.67816205 -28.43869564 142.34164469 -28.44287109 141.00512695 C-28.45077398 139.59896137 -28.45904304 138.1927978 -28.46765137 136.78663635 C-28.49385314 132.16637097 -28.5091786 127.54609662 -28.5234375 122.92578125 C-28.52879821 121.33390993 -28.53417572 119.74203867 -28.53956985 118.15016747 C-28.56119716 111.52671881 -28.57993251 104.90327258 -28.59119225 98.27979755 C-28.60742269 88.79539935 -28.64057981 79.31141138 -28.69759309 69.82716781 C-28.73633399 63.15442603 -28.75582991 56.48179377 -28.76111281 49.8089425 C-28.76476104 45.8257276 -28.77672506 41.84295043 -28.80921555 37.85985756 C-28.83936923 34.1094663 -28.84558258 30.35977591 -28.83383179 26.60928917 C-28.8335071 24.58544717 -28.85792482 22.56164795 -28.88320923 20.53796387 C-28.83418216 13.35760556 -28.36792331 7.81443968 -23.25 2.4375 C-16.01725305 -3.09089579 -8.16975968 -3.92776908 0 0 Z " fill="#000000" transform="translate(319.25,173.5625)"/>
</svg>
