<svg viewBox="0 0 24 24" fill="none" xmlns="http://www.w3.org/2000/svg">
  <path d="M11.5725 0c-.1763 0-.3098.0013-.3584.0067-.0516.0053-.2159.021-.3636.0328-3.4088.3073-6.6017 2.1463-8.624 4.9728C1.1004 6.584.3802 8.3666.1082 10.255c-.0962.659-.108.8537-.108 1.7474s.012 1.0884.108 1.7476c.652 4.506 3.8591 8.2919 8.2087 9.6945.7789.2511 1.6.4223 2.5337.5255.3636.04 1.9354.04 2.299 0 1.6117-.1783 2.9772-.577 4.3237-1.2643.2065-.1056.2464-.1337.2183-.1573-.0188-.0139-.8987-1.1938-1.9543-2.62l-1.919-2.592-2.4047-3.5583c-1.3231-1.9564-2.4117-3.556-2.4211-3.556-.0094-.0026-.0187 1.5787-.0235 3.509-.0067 3.3802-.0093 3.5162-.0516 3.596-.061.115-.108.1618-.2064.2134-.075.0374-.1408.0445-.495.0445h-.406l-.1078-.068a.4383.4383 0 0 1-.1572-.1712l-.0493-.1056.0053-4.703.0067-4.7054.0726-.0915c.0376-.0493.1174-.1125.1736-.143.0962-.047.1338-.0517.5396-.0517.4787 0 .5584.0187.6827.1547.0353.0377 1.3373 1.9987 2.895 4.3608a10760.433 10760.433 0 0 0 4.7344 7.1706l1.9002 2.8782.0968-.0634c.9955-.6463 2.0515-1.6102 2.8829-2.6334 1.2513-1.5429 2.0799-3.3162 2.4875-5.3234.0962-.659.108-.8537.108-1.7474s-.012-1.0884-.108-1.7476C23.2427 5.1875 20.0356 1.4016 15.686.0004 14.9065-.2511 14.0853-.4223 13.1517-.5252c-.1971-.0254-2.1545-.0441-2.5792-.0187zm6.4711 7.2705c.1062.047.1914.1313.2298.2276.0254.0585.0281 1.5171.0281 4.5544v4.4857l-.7522-1.1562-.7581-1.1562v-3.3183c0-2.4167.0093-3.3564.031-3.4272.0408-.1385.1598-.2614.2955-.3077.1171-.0405 1.0288-.0193 1.1649.0373z" fill="currentColor"/>
</svg>
