<svg viewBox="0 0 24 24" fill="none" xmlns="http://www.w3.org/2000/svg">
  <path d="M15.454 14.986c-.015-.001-.032-.001-.05-.001-.844 0-1.541.636-1.636 1.455l-.001.008v.006c0 .031.026.056.057.056h3.273c.03 0 .056-.025.056-.056v-.006c-.067-.823-.752-1.466-1.587-1.466-.039 0-.078.001-.117.004h.005zm3.453 2.572c0 .1-.08.18-.18.18h-4.876c-.031 0-.056.026-.056.057v.006c.158.88.917 1.54 1.834 1.54.05 0 .099-.002.147-.006l-.007.001c.634-.017 1.217-.226 1.696-.568l-.009.006c.03-.024.069-.038.111-.038.061 0 .115.031.148.077l.596.871c.02.029.031.064.031.102 0 .059-.027.111-.07.145l-.001.001a3.962 3.962 0 0 1-2.597.844h-.12c-.058.004-.126.006-.194.006-1.929 0-3.492-1.564-3.492-3.492 0-.049.001-.098.003-.147v.007c-.001-.031-.001-.066-.001-.102 0-1.938 1.571-3.509 3.509-3.509.022 0 .044 0 .066.001h-.003c.005 0 .01 0 .016 0 1.907 0 3.454 1.547 3.454 3.454 0 .121-.006.24-.018.357l.001-.015zM7.25 20.778c-.071.004-.155.006-.239.006-1.369 0-2.617-.514-3.563-1.36l.005.004c-.031-.036-.05-.083-.05-.135s.019-.099.05-.135l.826-1.159c.038-.053.1-.088.17-.088.054 0 .103.02.14.054h-.001c.723.673 1.696 1.085 2.765 1.085h.014c1.085 0 1.614-.5 1.614-1.029 0-1.642-5.342-.518-5.342-4.01 0-1.546 1.338-2.811 3.52-2.811.056-.002.121-.003.186-.003 1.251 0 2.4.44 3.299 1.174l-.009-.007c.034.037.055.086.055.14s-.021.104-.056.141l-.849 1.125c-.038.05-.098.082-.165.082-.051 0-.097-.018-.134-.048l.001.001c-.681-.547-1.556-.877-2.507-.877-.01 0-.02 0-.031 0h.001c-.849 0-1.321.376-1.321.934 0 1.473 5.331.489 5.331 3.936.005 1.698-1.204 2.98-3.712 2.98zm14.972-16.37l-6.95 7.8a.227.227 0 0 1-.155.066.227.227 0 0 1-.155-.066l-3.548-3.656a.218.218 0 0 1-.046-.132c0-.05.017-.096.046-.133l1.153-1.507a.227.227 0 0 1 .172-.086.227.227 0 0 1 .171.086l1.974 2.199a.227.227 0 0 0 .16.072.227.227 0 0 0 .16-.072L18.77 1.327a.19.19 0 0 0 .026-.085.152.152 0 0 0-.144-.151H.514a.162.162 0 0 0-.163.162v22.167c0 .09.073.162.163.162h21.149c.09 0 .162-.073.162-.162v-.001V4.459a.152.152 0 0 0-.152-.152.198.198 0 0 0-.114.052z" fill="currentColor"/>
</svg>