<svg width="960" height="640" viewBox="0 0 960 640" fill="none" xmlns="http://www.w3.org/2000/svg">
  <rect width="960" height="640" rx="48" fill="#0F101C"/>
  <g filter="url(#filter0_f)">
    <ellipse cx="240" cy="176" rx="180" ry="120" fill="#6BC1FF" fill-opacity="0.32"/>
    <ellipse cx="704" cy="444" rx="220" ry="140" fill="#8AFFE0" fill-opacity="0.26"/>
  </g>
  <path d="M128 320C176 240 248 212 320 240C392 268 448 356 512 356C576 356 632 268 704 240C776 212 848 240 896 320" stroke="#8AFFE0" stroke-width="4" stroke-linecap="round"/>
  <path d="M128 368C176 288 256 260 320 288C384 316 448 404 512 404C576 404 640 316 704 288C768 260 848 288 896 368" stroke="#6BC1FF" stroke-opacity="0.6" stroke-width="3" stroke-linecap="round" stroke-dasharray="12 16"/>
  <text x="96" y="164" fill="rgba(255,255,255,0.85)" font-family="'IBM Plex Mono', monospace" font-size="18" letter-spacing="0.28em">SONIFICATION LAB</text>
  <text x="96" y="212" fill="white" font-family="'Inter', sans-serif" font-weight="600" font-size="50">Project Harmonics</text>
  <text x="96" y="256" fill="rgba(255,255,255,0.72)" font-family="'Inter', sans-serif" font-size="22">Particle physics through sound</text>
  <defs>
    <filter id="filter0_f" x="-40" y="20" width="1040" height="640" filterUnits="userSpaceOnUse" color-interpolation-filters="sRGB">
      <feGaussianBlur stdDeviation="48"/>
    </filter>
  </defs>
</svg>
